<svg xmlns="http://www.w3.org/2000/svg" width="10.35" height="80.4"><g fill="#7d7d7d"><path d="M7.325 4.9V3.5h.3a1.884 1.884 0 0 0 .8-.2.909.909 0 0 0 .4-.8.749.749 0 0 0-.1-.5l-.3-.3c-.1-.1-.3-.1-.4-.2h-1a.367.367 0 0 0-.3.1c-.1.1-.2.1-.3.2s-.1.3-.2.4l-.4 1.1a2.994 2.994 0 0 1-.4.8 2.651 2.651 0 0 1-.6.5 1.884 1.884 0 0 1-.8.2c-.3 0-.6.1-1 .1a4.869 4.869 0 0 1-1.2-.1 3.552 3.552 0 0 1-.9-.4 1.555 1.555 0 0 1-.6-.8 5.019 5.019 0 0 1-.2-1.2 3.553 3.553 0 0 1 .2-1 2.177 2.177 0 0 1 .5-.8 1.794 1.794 0 0 1 .7-.5 2.769 2.769 0 0 1 .9-.1h.5v1.4h-.4a1.854 1.854 0 0 0-.7.2c-.2.1-.3.4-.3.8a1.268 1.268 0 0 0 .1.6l.3.3a.749.749 0 0 0 .5.1h1.2c.2 0 .3-.1.4-.1l.3-.3c.1-.1.1-.2.2-.4l.4-1a2.335 2.335 0 0 1 1-1.2 4.529 4.529 0 0 1 1.6-.3 4.253 4.253 0 0 1 1.1.2 4.053 4.053 0 0 1 .9.5 4.349 4.349 0 0 1 .6.7 4.253 4.253 0 0 1 .2 1.1 3.553 3.553 0 0 1-.2 1c-.1.3-.4.4-.6.7a2.035 2.035 0 0 1-1.5.6ZM3.025 12.4h-.6a2.92 2.92 0 0 1-.9-.2 1.794 1.794 0 0 1-.7-.5 1.794 1.794 0 0 1-.5-.7 2.92 2.92 0 0 1-.2-.9 2.2 2.2 0 0 1 .1-.8 2.01 2.01 0 0 1 .4-.8 1.794 1.794 0 0 1 .7-.5 4.253 4.253 0 0 1 1.1-.2h5.5a2.92 2.92 0 0 1 .9.2 1.794 1.794 0 0 1 .7.5 1.794 1.794 0 0 1 .5.7 2.92 2.92 0 0 1 .2.9 1.99 1.99 0 0 1-.7 1.6 2.177 2.177 0 0 1-.8.5 3.553 3.553 0 0 1-1 .2h-.6V11h.5a1.854 1.854 0 0 0 .7-.2.864.864 0 0 0 .3-.6c0-.4-.1-.6-.3-.7a1.884 1.884 0 0 0-.8-.2h-5.1a1.854 1.854 0 0 0-.7.2.908.908 0 0 0-.3.7v.3c0 .1.1.2.2.3s.2.2.3.2a.749.749 0 0 0 .5.1h.5v1.3ZM.225 15.3h10v2.3c0 1.7-1 2.5-2.9 2.5a4.013 4.013 0 0 1-1.5-.3 2.41 2.41 0 0 1-1-1l-4.5 1.5v-1.5l4.3-1.3v-.9h-4.3v-1.3h-.1Zm8.6 1.4h-3.1v.8c0 .3 0 .5.1.6s.2.3.3.4.3.1.5.2h1.4a.764.764 0 0 0 .5-.2.951.951 0 0 0 .4-1l-.1-.8ZM7.825 23.1a4.253 4.253 0 0 1 1.1.2 1.555 1.555 0 0 1 .8.6 2.01 2.01 0 0 1 .4.8 2.92 2.92 0 0 1 .2.9 2.92 2.92 0 0 1-.2.9c-.1.3-.3.5-.4.8a2.177 2.177 0 0 1-.8.5 4.253 4.253 0 0 1-1.1.2h-5.3a4.253 4.253 0 0 1-1.1-.2 1.794 1.794 0 0 1-.7-.5 2.177 2.177 0 0 1-.5-.8 2.92 2.92 0 0 1-.2-.9 2.92 2.92 0 0 1 .2-.9 2.177 2.177 0 0 1 .5-.8 4.349 4.349 0 0 1 .7-.6 4.253 4.253 0 0 1 1.1-.2Zm-5.3 1.4a1.136 1.136 0 0 0-.8.3.844.844 0 0 0-.2.7 1.854 1.854 0 0 0 .2.7 1.135 1.135 0 0 0 .8.3h5.3a1.136 1.136 0 0 0 .8-.3.844.844 0 0 0 .2-.7 1.854 1.854 0 0 0-.2-.7 1.135 1.135 0 0 0-.8-.3ZM.225 30.9h10v1.4h-8.5v2.8h-1.4v-4.2h-.1ZM.225 38h10v1.4h-8.5v2.8h-1.4V38ZM.225 49.7h10v2.1a2.64 2.64 0 0 1-.7 1.9 3.077 3.077 0 0 1-1.9.6h-4.7a2.7 2.7 0 0 1-2.1-.7 3.057 3.057 0 0 1-.7-2l.1-1.9Zm8.6 1.4h-7.3v.7a1.033 1.033 0 0 0 .9 1.2h5.1a2.92 2.92 0 0 0 .9-.2q.3-.15.3-.9v-.8ZM7.825 57.2a4.253 4.253 0 0 1 1.1.2 1.555 1.555 0 0 1 .8.6 2.01 2.01 0 0 1 .4.8 1.913 1.913 0 0 1 0 1.8c-.1.3-.3.5-.4.8a2.177 2.177 0 0 1-.8.5 4.1 4.1 0 0 1-1.1.1h-5.3a4.253 4.253 0 0 1-1.1-.2 1.794 1.794 0 0 1-.7-.5 2.177 2.177 0 0 1-.5-.8 1.912 1.912 0 0 1 0-1.8 2.177 2.177 0 0 1 .5-.8 4.349 4.349 0 0 1 .7-.6 4.253 4.253 0 0 1 1.1-.2l5.3.1Zm-5.3 1.5a1.135 1.135 0 0 0-.8.3.844.844 0 0 0-.2.7 1.854 1.854 0 0 0 .2.7 1.135 1.135 0 0 0 .8.3h5.3a1.135 1.135 0 0 0 .8-.3.844.844 0 0 0 .2-.7 1.854 1.854 0 0 0-.2-.7 1.135 1.135 0 0 0-.8-.3ZM10.125 72.6l-10-1.5v-1.3l6.5-1.1-6.5-1.1v-1.3l10-1.5v1.5l-6.3.7 6.3 1.1v1.1l-6.5 1.2 6.5.7ZM.225 75.4h10v1.4l-6 2.2h6v1.4h-10v-1.3l6-2.2h-6Z"/></g></svg>