<svg width="454" height="94" viewBox="0 0 454 94" fill="none" xmlns="http://www.w3.org/2000/svg">
<path d="M433.722 17.0998C428.947 14.5904 424.759 11.0961 421.434 6.84782C420.256 5.3271 418.744 4.09855 417.014 3.25771C415.284 2.41687 413.383 1.98641 411.46 1.99982H42.541C40.6174 1.98648 38.7166 2.41696 36.9863 3.25778C35.2561 4.0986 33.7432 5.32711 32.565 6.84782C29.2406 11.0958 25.0527 14.5901 20.278 17.0998C14.8108 19.9631 10.2231 24.2565 7.0042 29.5222C3.78526 34.7879 2.05573 40.8284 2 46.9998C2.05573 53.1712 3.78526 59.2118 7.0042 64.4774C10.2231 69.7431 14.8108 74.0365 20.278 76.8998C25.0525 79.4099 29.2403 82.9041 32.565 87.1518C33.7432 88.6725 35.2561 89.901 36.9863 90.7419C38.7166 91.5827 40.6174 92.0131 42.541 91.9998H411.46C413.383 92.0132 415.284 91.5828 417.014 90.7419C418.744 89.9011 420.256 88.6725 421.434 87.1518C424.759 82.9038 428.947 79.4096 433.722 76.8998C439.189 74.0365 443.777 69.7431 446.996 64.4774C450.215 59.2118 451.944 53.1712 452 46.9998C451.944 40.8284 450.215 34.7879 446.996 29.5222C443.777 24.2565 439.189 19.9631 433.722 17.0998Z" fill="#F2F2F2" stroke="#09438B" stroke-width="4"/>
</svg>
