<svg xmlns="http://www.w3.org/2000/svg" width="1200.004" height="1158.998" viewBox="0 0 1200.004 1158.998"><g transform="translate(0.004 -0.002)"><path d="M462.845,527.67l-27.818-43.125a267.551,267.551,0,0,1-16.38-28.372l-.39.126c.65,10.718.91,20.932.91,35.055V527.67H408.508V442.68h12.349l28.079,43a238.264,238.264,0,0,1,15.729,27.615l.26-.126c-1.04-11.349-1.3-21.689-1.3-34.929V442.68h10.66v84.99ZM439.89,221.463H472v8.2H439.89Zm8.578,38.207H399.72V174.68h11.309v75.785h37.439ZM334.161,517.33c-7.54-7.061-12.22-18.41-12.22-31.65.13-25.346,18.069-43.882,47.448-43.882,10.139,0,18.069,2.143,21.839,3.909l-2.73,8.953c-4.68-2.018-10.529-3.657-19.369-3.657-21.319,0-35.228,12.862-35.228,34.172,0,21.563,13.389,34.3,33.8,34.3,7.41,0,12.479-1.009,15.079-2.27V491.858H364.969v-8.826h28.859v40.855a83.845,83.845,0,0,1-26.909,4.666C353.66,528.553,342.74,525.274,334.161,517.33Zm8.112-342.65h11.309v75.785h37.439v9.205H342.273Zm-59.618,0h47.318v9.206H293.964v26.858h34.059v9.079H293.964v30.642h37.959v9.205H282.655Zm-44.736,84.99L226.87,215.41a249.139,249.139,0,0,1-5.72-27.741h-.26a258.884,258.884,0,0,1-6.76,27.741l-12.479,44.26h-11.83l-22.229-84.99h11.96l10.4,43c2.6,10.592,4.94,21.184,6.5,29.38h.26c1.43-8.448,4.16-18.536,7.15-29.506l11.7-42.874h11.83l10.659,43.126c2.47,10.088,4.81,20.175,6.11,29.128h.26c1.82-9.331,4.29-18.788,7.019-29.38l11.57-42.874h11.569l-24.829,84.99Zm-123.381.757A188.242,188.242,0,0,1,94,259.418v-83.6a167.015,167.015,0,0,1,24.049-1.765c16.249,0,27.819,3.657,35.488,10.592,7.8,6.936,12.35,16.771,12.35,30.516,0,13.87-4.42,25.219-12.61,33.037C145.087,256.139,131.567,260.427,114.538,260.427Zm4.03-77.676a66.15,66.15,0,0,0-13.26,1.135v67.083a73.515,73.515,0,0,0,11.44.631c24.179,0,37.308-13.114,37.308-36.064C154.186,195.487,142.487,182.751,118.568,182.751ZM105.308,393.67H94V308.68h11.309Zm48.228,58.972c7.8,6.936,12.35,16.771,12.35,30.516,0,13.87-4.42,25.219-12.61,33.037-8.189,7.944-21.709,12.232-38.738,12.232A188.259,188.259,0,0,1,94,527.418v-83.6a167.015,167.015,0,0,1,24.049-1.765C134.3,442.05,145.867,445.707,153.536,452.642Zm-48.228,66.327a73.515,73.515,0,0,0,11.44.631c24.179,0,37.308-13.114,37.308-36.064.13-20.049-11.569-32.785-35.488-32.785a66.151,66.151,0,0,0-13.26,1.135Zm26.7-196.8-.39.126c.65,10.718.91,20.932.91,35.055V393.67H121.871V308.68H134.22l28.079,43A238.262,238.262,0,0,1,178.028,379.3l.26-.126c-1.04-11.349-1.3-21.689-1.3-34.929V308.68h10.66v84.99h-11.44L148.39,350.545A267.557,267.557,0,0,1,132.01,322.173Zm93.144,129.713H189.145v26.858H223.2v9.079H189.145v30.642H227.1v9.2H177.836V442.68h47.318Zm17.42-94.028v-8.826h28.859v40.855a83.838,83.838,0,0,1-26.909,4.666c-13.259,0-24.179-3.279-32.758-11.223-7.54-7.061-12.22-18.41-12.22-31.65.13-25.346,18.069-43.882,47.448-43.882,10.139,0,18.069,2.143,21.839,3.909l-2.73,8.953c-4.68-2.018-10.529-3.657-19.369-3.657-21.319,0-35.228,12.862-35.228,34.172,0,21.563,13.389,34.3,33.8,34.3,7.41,0,12.479-1.009,15.079-2.27V357.858Zm15.315,161.994c11.57,0,18.329-5.926,18.329-14.5,0-7.944-4.68-12.484-16.509-16.9-14.3-4.918-23.139-12.105-23.139-24.085,0-13.24,11.31-23.076,28.339-23.076,8.969,0,15.469,2.018,19.369,4.162l-3.12,8.953a35.722,35.722,0,0,0-16.639-4.036c-11.96,0-16.509,6.936-16.509,12.736,0,7.944,5.329,11.853,17.419,16.393,14.819,5.548,22.359,12.484,22.359,24.967,0,13.114-10.01,24.463-30.679,24.463-8.45,0-17.679-2.4-22.359-5.422l2.86-9.2A41,41,0,0,0,257.889,519.852Zm52.169,7.818H298.749V442.68h11.309Z" fill="#fff" fill-rule="evenodd" opacity="0.102"/><path d="M530,0h670V890H530Z" fill-rule="evenodd"/><path d="M0,679H440v480H0Z" fill-rule="evenodd"/></g></svg>