<svg xmlns="http://www.w3.org/2000/svg" width="1920" height="973.569" viewBox="0 0 1920 973.569"><path d="M1920,1071.977h0c-4.872-.505-10.045-1.013-15.047-1.505-5.042-.5-10.256-1.009-15.195-1.52v-1.009h-8.067v-1.008h-9.077v-1.01h-8.067v-1.007h-8.068c-4.931-1.437-10.876-1.985-16.625-2.515-5.764-.531-11.724-1.081-16.653-2.527h-9.075c-5.3-1.535-11.734-2.016-17.953-2.482-6.337-.474-12.886-.965-18.35-2.56h-10.083v-1.008h-9.076v-1.008l-13.361-.668-6.808-.341V1050.8l-10.084,0c-5.639-1.622-12.474-2.069-19.084-2.5-6.667-.435-13.56-.885-19.235-2.541h-10.084v-1.008h-11.093v-1.008h-12.1v-1.008h-11.091v-1.009l-16.276-.957-18.01-1.059V1038.7h-11.092v-1.008h-12.1v-1.009h-11.092v-1.009H1566.06v-1.008h-13.109v-1.009h-14.119v-1.008h-14.115v-1.008H1510.6v-1.008H1496.48v-1.008h-14.117v-1.008h-14.118v-1.008c-5.684-.2-11.464-.4-17.054-.59l-1.26-.044L1439,1026.6v-1.008h-11.091l-24.2-1.007v-1.009h-17.144v-1.008a22.265,22.265,0,0,0-6.122-.655c-1.322,0-2.653.048-3.94.095h-.031c-1.275.046-2.594.093-3.828.093a19.255,19.255,0,0,1-5.239-.543h-17.143v-1.008h-12.1l-9.031-.361-.132-.005-16.049-.641v-1.009h-25.21v-1.008h-25.21v-1.008H1235.3v-1.008h-25.211V1014.5l-25.267-.3-24.4-.294-11.713-.141-22.321-.269v-1.01h-24.2c-2.971-.84-6.963-1.215-12.941-1.215-2.332,0-4.706.055-7,.108h-.031c-2.2.051-4.282.1-6.245.1h-18.152c-3.63-1.027-8.651-1.159-12.619-1.159-2.039,0-4.1.04-6.1.079-1.928.037-3.749.073-5.482.073H981.186v-1.008a29.671,29.671,0,0,0-6.416-.456c-2.858,0-6.2.121-9.432.239h-.006c-3.077.112-5.983.217-8.348.217H866.227v1.008H800.681v1.008h-4.035c-.689.015-1.427.023-2.193.023-3.17,0-6.491-.128-10.008-.264l-.11,0h-.012c-3.26-.125-6.956-.267-10.423-.267-6.358,0-10.986.483-14.563,1.521H750.2c-2.632,0-5.465-.094-8.464-.193l-.34-.011h0c-2.877-.1-6.137-.2-9.289-.2-6.29,0-10.771.451-14.1,1.419H694.8l-8.669.271-4.615.144-18.984.593v1.009h-26.22v1.008H611.1c-4.911,1.4-10.636,1.585-15.588,1.586-2.165,0-4.4-.043-6.561-.085h-.043c-2.163-.042-4.4-.085-6.58-.085-4.973,0-10.716.191-15.6,1.61H548.581v1.008c-9.5.27-19.165.546-28.516.814l-1.492.043-5.287.151v1.009h-18.15v1.008H476.984v1.009H459.84v1.007H445.724v1.009H431.6v1.009H417.488v1.009l-25.851,1.2-.449.021-17.06.794v1.008H360.009v1.009H345.891v1.008h-12.1v1.009H322.7v1.008H310.6v1.009H299.5c-4.971,1.427-11.122,1.717-17.071,2-6.005.284-12.21.577-17.215,2.035H254.127v1.009l-9.885.581-.879.052-23.522,1.385v1.008H209.757v1.008H199.673v1.008H190.6c-5.845,1.685-12.843,2.1-19.611,2.505-6.812.406-13.854.825-19.715,2.537l-20.168,1.008c-5.485,1.579-12.149,2.047-18.593,2.5H112.5c-6.5.456-13.222.928-18.711,2.542H85.724v1.008H77.656v1.009H68.581v1.009H60.514v1.008H52.446v1.009H43.371v1.008H35.3v1.008H27.236v1.008H19.169c-3.342.5-6.489,1.012-9.532,1.5l-.054.009c-3.059.5-6.222,1.009-9.582,1.513V98.408c4.755.492,9.676.992,14.436,1.476l.364.037c4.35.442,9.764.992,14.79,1.512v1.008h8.068v1.007h9.076v1.011H54.8v1.008h8.067c4.931,1.437,10.875,1.985,16.623,2.515,5.765.532,11.726,1.081,16.655,2.528h9.075c5.3,1.534,11.732,2.016,17.95,2.481h.005c6.334.474,12.885.965,18.349,2.56h10.083v1.008h9.075v1.008l10.6.529,9.573.479v1.009h10.085c5.64,1.623,12.476,2.069,19.088,2.5,6.665.435,13.557.885,19.232,2.54h10.085v1.008h11.091v1.008h12.1v1.008l11.091,0v1.008l28.11,1.654,2.008.118,4.17.245v1.009H319v1.008h12.1V133.7h11.092v1.01h11.092v1.008H366.4v1.008h14.117v1.008h14.117v1.008h14.118v1.008h14.116v1.008h14.119v1.008H451.1v1.008c10.651.369,21.223.733,29.243,1.008v1.009h11.091q8.648.362,17.3.721l.4.016,6.508.271v1.008h17.144v1.008a22.233,22.233,0,0,0,6.115.655c1.31,0,2.648-.048,3.941-.095h.049c1.272-.046,2.588-.093,3.819-.093a19.23,19.23,0,0,1,5.236.543h17.142v1.008h12.1q12.6.506,25.21,1.01v1.009h25.21v1.008h25.211v1.009h27.226v1.008h25.211v1.008l41.811.5,10.7.129,31.189.376v1.009h24.2c2.971.84,6.961,1.215,12.937,1.215,2.322,0,4.7-.055,6.99-.108h.013c2.214-.051,4.305-.1,6.278-.1h18.152c3.631,1.028,8.656,1.16,12.629,1.16,2.037,0,4.1-.04,6.1-.078h.027c1.918-.037,3.73-.072,5.45-.072h52.437v1.008a29.665,29.665,0,0,0,6.415.455c2.857,0,6.2-.121,9.43-.238h.006c3.078-.112,5.985-.217,8.351-.217h90.756v-1.008h65.546v-1.009h4.034c.7-.016,1.444-.024,2.219-.024,3.146,0,6.438.127,9.924.261l.173.007c3.264.125,6.963.268,10.434.268,6.356,0,10.983-.483,14.56-1.52h9.187c2.642,0,5.478.095,8.481.2l.271.009c2.876.1,6.136.2,9.292.2,6.294,0,10.778-.45,14.114-1.417h23.194l10.521-.329,5.612-.175,16.133-.5v-1.008h26.219v-1.008h25.21c4.913-1.4,10.639-1.588,15.593-1.588,2.168,0,4.4.043,6.564.085h.054c2.167.042,4.406.085,6.571.085,4.969,0,10.708-.191,15.588-1.609h18.151v-1.01c13.587-.385,26.651-.76,35.3-1.008V147.82h18.151v-1.008h18.151V145.8h17.144v-1.008h14.116v-1.009h14.118v-1.007h14.117V141.77l25.5-1.186,2.432-.113,14.115-.657,1.313-.061v-1.008h14.117v-1.008h14.117v-1.008h12.1V135.72h11.092v-1.008h12.1V133.7h11.093c4.974-1.427,11.127-1.718,17.078-2h.005c6-.284,12.2-.577,17.2-2.034h11.092v-1.008l10.828-.637,2.969-.175.546-.032,19.943-1.175v-1.008h10.083v-1.009h10.085v-1.008h9.075c5.845-1.685,12.844-2.1,19.612-2.5,6.811-.406,13.853-.826,19.716-2.537l20.167-1.007c5.486-1.579,12.151-2.047,18.6-2.5,6.5-.456,13.224-.928,18.715-2.543h8.068v-1.008h8.067V110.51h9.076V109.5h8.067v-1.009h8.067v-1.008h9.075v-1.008h8.068v-1.009h8.067v-1.008h8.069c3.414-.512,6.753-1.026,9.983-1.524,3.189-.491,6.487-1,9.839-1.5v970.543Z" transform="translate(0 -98.408)" fill="#fff"/></svg>