<svg xmlns="http://www.w3.org/2000/svg" xmlns:xlink="http://www.w3.org/1999/xlink" width="1000" height="818" viewBox="0 0 1000 818">
  <defs>
    <clipPath id="clip-path">
      <rect width="1000" height="818" transform="translate(835 -2709)" fill="#fff"/>
    </clipPath>
    <radialGradient id="radial-gradient-blue" cx="0.5" cy="0.5" r="0.5" gradientUnits="objectBoundingBox">
      <stop offset="0" stop-color="#5dc2d0"/>
      <stop offset="0.621" stop-color="#5dc2d0"/>
      <stop offset="1" stop-color="#5dc2d0" stop-opacity="0"/>
    </radialGradient>
    <radialGradient id="radial-gradient-orange" cx="0.5" cy="0.5" r="0.5" gradientUnits="objectBoundingBox">
      <stop offset="0" stop-color="#FFA20D"/>
      <stop offset="0.621" stop-color="#FFA20D"/>
      <stop offset="1" stop-color="#FFA20D" stop-opacity="0"/>
    </radialGradient>
  </defs>
  <g id="parts_point" transform="translate(-835 2709)" clip-path="url(#clip-path)">
    <g id="eyes">
      <path class="point" d="M47.5,95a47.486,47.486,0,1,1,18.489-3.733A47.512,47.512,0,0,1,47.5,95Zm0-77.187a29.595,29.595,0,1,0,11.555,2.333A29.595,29.595,0,0,0,47.5,17.813Z" transform="translate(1354 -2532)" fill="url(#radial-gradient-blue)"/>
      <g class="cap" fill="#5dc2d0">
        <path d="M7.136-20.576c-2.144,0-3.392-.128-4.9-.128-.448,0-.9.16-.9.448,0,.256.256.384.928.544,1.408.32,1.728.7,1.792,2.112.064.928.032,1.6.032,5.408,0,3.968-.16,7.744-.256,9.088C3.712-1.376,3.1-1.152,1.5-.768.988-.64.6-.48.6-.256.608.1.96.16,1.568.16,2.784.16,3.488,0,5.184,0c5.216,0,10.048.256,10.4.256.16,0,.448-.256.544-.384A25.349,25.349,0,0,0,17.28-3.552c.064-.352-.032-.864-.256-.864-.192,0-.384.192-.736.9a3.975,3.975,0,0,1-2.656,2.368,18.348,18.348,0,0,1-3.04.224A18.066,18.066,0,0,1,7.68-1.152a1.057,1.057,0,0,1-.608-.7,9.852,9.852,0,0,1-.32-2.656c0-1.376-.032-4.352.1-5.024,0-.064.16-.288.288-.288.864,0,2.144,0,3.168.064,1.952.1,2.08.192,2.528,1.664.1.352.32.7.544.7s.384-.352.352-.928c-.032-.64-.1-1.088-.1-1.952,0-.768.032-1.408.1-2.3.032-.256-.032-.7-.256-.7-.192,0-.384.192-.576.672-.576,1.472-.7,1.6-3.712,1.6H7.1c-.16,0-.192-.192-.224-.32-.064-.48.032-6.5.1-7.3.064-.736.416-.9.48-.9A32.84,32.84,0,0,1,12-19.392c1.024.16,1.728.48,2.144,2.176.064.32.224.768.512.768s.48-.384.48-.832c0-.64-.064-1.568-.064-3.04-.032-.16-.192-.384-.288-.352-.48.064-1.888.1-2.944.1ZM16.8-12.224c0,.192.192.32.64.48a2,2,0,0,1,1.5,1.248c.992,2.016,2.976,6.784,3.648,8.672.128.352.384,1.088.48,1.312a2.134,2.134,0,0,1-.1,1.152A40.27,40.27,0,0,1,21.44,4.768c-.128.32-.192.544-.48.544-.32,0-.992-.032-1.152-.032A1.48,1.48,0,0,0,18.4,6.688a1.433,1.433,0,0,0,1.44,1.568,1.683,1.683,0,0,0,1.664-.9c1.024-2.72,2.208-6.016,3.328-8.928.736-1.856,2.464-6.144,3.52-8.544.48-1.056.9-1.44,1.568-1.664.384-.128.7-.256.7-.544,0-.224-.224-.288-.64-.288-.832,0-1.568.128-2.016.128-.416,0-1.28-.032-1.888-.032-.384,0-.8.064-.8.352,0,.128.288.352.672.448,1.248.288,1.5.672,1.216,1.568-.16.512-2.144,5.7-2.528,6.56-.1.192-.224.192-.256.128-.256-.384-2.3-5.408-2.784-6.944-.32-.832-.224-.992.672-1.248.512-.128.736-.32.736-.544,0-.256-.448-.352-.7-.352-.384,0-1.344.064-2.24.064-.928,0-1.7-.128-2.5-.128C16.9-12.608,16.8-12.352,16.8-12.224ZM37.536-12.9a6.752,6.752,0,0,0-2.432.576,6.831,6.831,0,0,0-3.84,6.272c0,3.744,2.3,6.368,5.76,6.368a5.462,5.462,0,0,0,4.64-2.4,1.808,1.808,0,0,0,.224-.768c0-.16-.064-.384-.256-.384-.128,0-.288.192-.416.384A3.238,3.238,0,0,1,38.3-1.7a4.542,4.542,0,0,1-3.584-1.76A6.552,6.552,0,0,1,33.5-7.1a4.114,4.114,0,0,1,.16-1.12c.032-.1.16-.256.256-.256,1.472.032,6.944.032,7.3.032a.651.651,0,0,0,.608-.544A3.588,3.588,0,0,0,40.7-11.68a4.617,4.617,0,0,0-3.164-1.22Zm-.32.832a2.152,2.152,0,0,1,2.112,1.92c0,.64-.32.8-1.088.8-1.6.032-3.3.032-4.128,0-.064,0-.192-.192-.128-.352a3.467,3.467,0,0,1,3.232-2.364Zm11.456-.864a4.777,4.777,0,0,0-2.56.672,3.324,3.324,0,0,0-1.76,2.88,3.958,3.958,0,0,0,1.984,3.232c.992.64,1.184.8,1.952,1.344a2.463,2.463,0,0,1,1.44,2.144A2.391,2.391,0,0,1,48.992-.9a2.425,2.425,0,0,1-1.28.48C46.56-.42,45.7-1.06,44.8-2.692c-.192-.352-.416-.736-.672-.736-.192,0-.256.32-.256.672a8.067,8.067,0,0,0,.48,2.432,6.451,6.451,0,0,0,3.1.7A5.447,5.447,0,0,0,50.14-.36,4.062,4.062,0,0,0,52-3.488c0-1.44-.7-2.528-2.5-3.584-2.144-1.184-3.168-2.016-3.168-3.1a2.048,2.048,0,0,1,1.92-1.984c1.056,0,1.856.64,2.56,2.144.16.352.352.544.48.544.256,0,.384-.288.384-.576,0-.224-.1-1.312-.1-1.888a.668.668,0,0,0-.256-.448,5.945,5.945,0,0,0-1.024-.352,7.122,7.122,0,0,0-1.624-.2Z" transform="translate(1517 -2540)"/>
        <circle cx="5" cy="5" r="5" transform="translate(1501 -2554)"/>
        <path data-name="path" d="M.261,49.426l-.522-.853,80-49,.522.853Z" transform="translate(1426.5 -2549.5)"/>
      </g>
    </g>
    <g id="body" fill="#5dc2d0">
      <path class="point" data-name="point" d="M47.5,95a47.486,47.486,0,1,1,18.489-3.733A47.512,47.512,0,0,1,47.5,95Zm0-77.187a29.595,29.595,0,1,0,11.555,2.333A29.595,29.595,0,0,0,47.5,17.813Z" transform="translate(1072 -2257)" fill="url(#radial-gradient-blue)"/>
      <g class="cap" data-name="cap">
        <path data-name="path" d="M16-15.84a4.745,4.745,0,0,0-2.272-4.032A9.043,9.043,0,0,0,9.216-20.8c-1.312,0-4.064.224-5.088.224H1.984c-.448,0-.864.16-.864.416s.416.448.832.512c1.76.224,1.856.576,2.016,1.28a41.6,41.6,0,0,1,.192,5.056c0,6.368-.16,9.824-.256,10.5C3.776-1.7,3.776-1.28,1.5-.864,1.152-.8.7-.608.7-.352c0,.288.448.416.928.416C2.176.064,2.944.032,3.68.032,5.152.032,8.224.16,9.12.16a11.093,11.093,0,0,0,5.728-1.472,5.376,5.376,0,0,0,2.56-4.768c0-3.1-2.368-4.576-3.936-5.28-.1-.032-.16-.224-.064-.256A4.5,4.5,0,0,0,16-15.84Zm-2.688.224a4.042,4.042,0,0,1-1.76,3.3,11.5,11.5,0,0,1-4.512.8c-.288,0-.352-.256-.352-.416a67.684,67.684,0,0,1,.192-7.1,1.649,1.649,0,0,1,.384-.512A6.716,6.716,0,0,1,8.64-19.8C11.616-19.808,13.312-18.208,13.312-15.616ZM14.4-5.76a4.713,4.713,0,0,1-1.341,3.55A4.713,4.713,0,0,1,9.536-.8,3.629,3.629,0,0,1,7.36-1.888a2,2,0,0,1-.512-1.056A53.813,53.813,0,0,1,6.72-9.376c.064-.7.16-.832.224-.928a3.58,3.58,0,0,1,1.408-.224,8.031,8.031,0,0,1,3.392.608A4.6,4.6,0,0,1,14.4-5.76Zm12.576-7.168a7.165,7.165,0,0,0-4.736,1.76A6.174,6.174,0,0,0,20-6.176a7.078,7.078,0,0,0,2.368,4.9A6.958,6.958,0,0,0,26.624.384,6.387,6.387,0,0,0,30.592-.9a6.886,6.886,0,0,0,2.784-5.5A6.421,6.421,0,0,0,31.541-11,6.421,6.421,0,0,0,26.976-12.928Zm-.608.96a4.032,4.032,0,0,1,2.688,1.248,7.388,7.388,0,0,1,1.6,4.9,7.36,7.36,0,0,1-1.44,4.22A2.931,2.931,0,0,1,27.264-.544C25.728-.544,23.9-1.7,23.1-4.1a9.584,9.584,0,0,1-.384-2.848,6,6,0,0,1,1.568-4.1,3.367,3.367,0,0,1,2.084-.92Zm16.96-.96A9.243,9.243,0,0,0,39.1-11.712a6.632,6.632,0,0,0-3.392,5.888,6.662,6.662,0,0,0,1.54,4.384,5.591,5.591,0,0,0,4,1.76,6.24,6.24,0,0,0,4.16-1.6.2.2,0,0,1,.192.192c0,.448-.064,1.024-.064,1.312,0,.16.224.416.352.416A4.387,4.387,0,0,0,47.04.32a23.242,23.242,0,0,1,2.88-.64,1.34,1.34,0,0,0,.544-.8c0-.032-.064-.192-.192-.192-.32.032-1.376.256-1.728.256-.192,0-.448-.128-.512-1.312,0-.608-.064-1.12-.064-7.3,0-9.792.128-10.944.288-12.64.032-.288-.16-.512-.256-.512a1.253,1.253,0,0,0-.416.1,20.05,20.05,0,0,1-3.264.9,1,1,0,0,0-.544.544c0,.064.032.128.32.288,1.472.768,1.472,1.152,1.5,1.312a55.429,55.429,0,0,1,.032,6.528c-.032.16-.128.384-.256.352a11.6,11.6,0,0,0-2.044-.132Zm-1.184,1.056A4.328,4.328,0,0,1,44.9-10.624a2.719,2.719,0,0,1,.7,1.216c.1,1.5.128,3.264.1,5.312a5.554,5.554,0,0,1-.512,2.112,3.838,3.838,0,0,1-2.336.768C40.1-1.216,38.3-4.16,38.3-6.72a6.347,6.347,0,0,1,1.344-4.032,3.645,3.645,0,0,1,2.5-1.12Zm8.352-.352c0,.192.192.32.64.48a2,2,0,0,1,1.5,1.248c.992,2.016,2.976,6.784,3.648,8.672.128.352.384,1.088.48,1.312a2.134,2.134,0,0,1-.1,1.152,40.269,40.269,0,0,1-1.536,4.128c-.128.32-.192.544-.48.544-.32,0-.992-.032-1.152-.032a1.48,1.48,0,0,0-1.4,1.408,1.433,1.433,0,0,0,1.44,1.568,1.683,1.683,0,0,0,1.664-.9c1.024-2.72,2.208-6.016,3.328-8.928.736-1.856,2.464-6.144,3.52-8.544.48-1.056.9-1.44,1.568-1.664.384-.128.7-.256.7-.544,0-.224-.224-.288-.64-.288-.832,0-1.568.128-2.016.128-.416,0-1.28-.032-1.888-.032-.384,0-.8.064-.8.352,0,.128.288.352.672.448,1.248.288,1.5.672,1.216,1.568-.16.512-2.144,5.7-2.528,6.56-.1.192-.224.192-.256.128-.256-.384-2.3-5.408-2.784-6.944-.32-.832-.224-.992.672-1.248.512-.128.736-.32.736-.544,0-.256-.448-.352-.7-.352-.384,0-1.344.064-2.24.064-.928,0-1.7-.128-2.5-.128-.672,0-.764.26-.764.388Z" transform="translate(987.5 -2304.959)"/>
        <circle data-name="circle" cx="5" cy="5" r="5" transform="translate(1062 -2318.959)"/>
        <path data-name="path" d="M-.445,49.229-41.073-29.754l.889-.457L.445,48.771Z" transform="translate(1106.859 -2285.75)"/>
      </g>
    </g>
    <g id="nose" fill="#5dc2d0">
      <g class="cap" data-name="cap">
        <path data-name="path" d="M.48-20.288c0,.256.352.416.7.512,1.44.384,1.792.416,2.688,1.472.064.1.224.384.224,1.536,0,2.656-.448,10.336-.608,12.928-.128,2.368-.736,2.5-2.24,3.008-.32.1-.64.288-.64.544,0,.32.384.352.832.352C1.984.064,2.816,0,3.52,0c1.152,0,2.5.16,3.424.16.608,0,1.024-.1,1.024-.416,0-.192-.128-.416-.8-.576C5.632-1.28,5.28-1.76,5.152-3.232c-.064-.992.032-5.92.032-8.8.032-2.5.128-3.392.16-4.256,0-.16.224-.224.352-.064,2.88,3.456,8.416,9.7,11.424,13.28.864,1.056,1.44,1.888,1.984,2.56.288.384.992,1.024,1.44,1.024.288,0,.448-.352.448-.672,0-.512-.224-2.912-.224-4.256,0-5.5.288-11.808.352-12.96.1-1.728.672-2.016,2.048-2.336.576-.16.768-.448.768-.64,0-.256-.192-.352-.736-.352-.832,0-1.856.128-3.008.128-1.024,0-1.92-.032-2.752-.032-.384,0-.832.064-.832.288,0,.256.224.512.864.7,1.76.512,1.984,1.28,2.016,1.952.1.992.16,2.112.16,3.2,0,4.608.1,8.064-.064,9.088,0,.1-.128.416-.32.224C17.12-7.488,10.08-15.168,8.64-16.992c-1.248-1.632-2.048-2.592-2.528-3.168a1.3,1.3,0,0,0-.672-.416c-1.632,0-3.2-.1-3.9-.1C.8-20.672.48-20.544.48-20.288Zm31.136,7.36a7.165,7.165,0,0,0-4.736,1.76,6.174,6.174,0,0,0-2.24,4.992,7.078,7.078,0,0,0,2.368,4.9A6.958,6.958,0,0,0,31.264.384,6.387,6.387,0,0,0,35.232-.9a6.886,6.886,0,0,0,2.784-5.5A6.421,6.421,0,0,0,36.181-11a6.421,6.421,0,0,0-4.565-1.926Zm-.608.96A4.032,4.032,0,0,1,33.7-10.72a7.388,7.388,0,0,1,1.6,4.9A7.36,7.36,0,0,1,33.856-1.6,2.931,2.931,0,0,1,31.9-.544c-1.536,0-3.36-1.152-4.16-3.552a9.584,9.584,0,0,1-.384-2.848,6,6,0,0,1,1.568-4.1,3.367,3.367,0,0,1,2.084-.924Zm13.952-.96a4.777,4.777,0,0,0-2.56.672,3.324,3.324,0,0,0-1.76,2.88,3.958,3.958,0,0,0,1.984,3.232c.992.64,1.184.8,1.952,1.344a2.463,2.463,0,0,1,1.44,2.144A2.391,2.391,0,0,1,45.28-.9,2.425,2.425,0,0,1,44-.416c-1.152,0-2.016-.64-2.912-2.272-.192-.352-.416-.736-.672-.736-.192,0-.256.32-.256.672A8.067,8.067,0,0,0,40.64-.32a6.451,6.451,0,0,0,3.1.7,5.447,5.447,0,0,0,2.688-.736,4.062,4.062,0,0,0,1.856-3.136c0-1.44-.7-2.528-2.5-3.584-2.144-1.184-3.168-2.016-3.168-3.1a2.048,2.048,0,0,1,1.92-1.984c1.056,0,1.856.64,2.56,2.144.16.352.352.544.48.544.256,0,.384-.288.384-.576,0-.224-.1-1.312-.1-1.888a.668.668,0,0,0-.256-.448,5.945,5.945,0,0,0-1.024-.352A7.122,7.122,0,0,0,44.96-12.928Zm11.68.032a6.752,6.752,0,0,0-2.432.576,6.831,6.831,0,0,0-3.84,6.272c0,3.744,2.3,6.368,5.76,6.368a5.462,5.462,0,0,0,4.64-2.4,1.808,1.808,0,0,0,.224-.768c0-.16-.064-.384-.256-.384-.128,0-.288.192-.416.384A3.238,3.238,0,0,1,57.408-1.7a4.542,4.542,0,0,1-3.584-1.76A6.552,6.552,0,0,1,52.608-7.1a4.114,4.114,0,0,1,.16-1.12c.032-.1.16-.256.256-.256,1.472.032,6.944.032,7.3.032a.651.651,0,0,0,.608-.544,3.588,3.588,0,0,0-1.12-2.688A4.617,4.617,0,0,0,56.64-12.9Zm-.32.832a2.152,2.152,0,0,1,2.112,1.92c0,.64-.32.8-1.088.8-1.6.032-3.3.032-4.128,0-.064,0-.192-.192-.128-.352a3.467,3.467,0,0,1,3.232-2.368Z" transform="translate(1498.75 -2367.5)"/>
        <circle data-name="circle" cx="5" cy="5" r="5" transform="translate(1482.75 -2381.5)"/>
        <path data-name="path" d="M79.895.489-44.13-26.176l.21-.978L80.105-.489Z" transform="translate(1408.25 -2377)"/>
      </g>
      <path class="point" data-name="point" d="M47.5,95a47.486,47.486,0,1,1,18.489-3.733A47.512,47.512,0,0,1,47.5,95Zm0-77.187a29.595,29.595,0,1,0,11.555,2.333A29.595,29.595,0,0,0,47.5,17.813Z" transform="translate(1288 -2463)" fill="url(#radial-gradient-blue)"/>
    </g>
    <g id="ears" fill="#5dc2d0">
      <path class="point" data-name="point" d="M47.5,95a47.486,47.486,0,1,1,18.489-3.733A47.512,47.512,0,0,1,47.5,95Zm0-77.187a29.595,29.595,0,1,0,11.555,2.333A29.595,29.595,0,0,0,47.5,17.813Z" transform="translate(1156 -2505)" fill="url(#radial-gradient-blue)"/>
      <g class="cap" data-name="cap">
        <path data-name="path" d="M-44.96-20.576c-2.144,0-3.392-.128-4.9-.128-.448,0-.9.16-.9.448,0,.256.256.384.928.544,1.408.32,1.728.7,1.792,2.112.064.928.032,1.6.032,5.408,0,3.968-.16,7.744-.256,9.088C-48.392-1.376-49-1.152-50.6-.768c-.512.128-.9.288-.9.512,0,.352.352.416.96.416,1.216,0,1.92-.16,3.616-.16,5.216,0,10.048.256,10.4.256.16,0,.448-.256.544-.384a25.348,25.348,0,0,0,1.152-3.424c.064-.352-.032-.864-.256-.864-.192,0-.384.192-.736.9a3.975,3.975,0,0,1-2.656,2.368,18.348,18.348,0,0,1-3.04.224,18.066,18.066,0,0,1-2.912-.224,1.057,1.057,0,0,1-.608-.7,9.852,9.852,0,0,1-.32-2.656c0-1.376-.032-4.352.1-5.024,0-.064.16-.288.288-.288.864,0,2.144,0,3.168.064,1.952.1,2.08.192,2.528,1.664.1.352.32.7.544.7s.384-.352.352-.928c-.032-.64-.1-1.088-.1-1.952,0-.768.032-1.408.1-2.3.032-.256-.032-.7-.256-.7-.192,0-.384.192-.576.672-.576,1.472-.7,1.6-3.712,1.6H-45c-.16,0-.192-.192-.224-.32-.064-.48.032-6.5.1-7.3.064-.736.416-.9.48-.9a32.841,32.841,0,0,1,4.544.128c1.024.16,1.728.48,2.144,2.176.064.32.224.768.512.768s.48-.384.48-.832c0-.64-.064-1.568-.064-3.04-.032-.16-.192-.384-.288-.352-.48.064-1.888.1-2.944.1Zm17.76,7.648a6.86,6.86,0,0,0-2.976,1.216c-1.5.992-2.4,1.888-2.4,2.816a.475.475,0,0,0,.384.416,11.589,11.589,0,0,0,2.08-1.056.763.763,0,0,0,.192-.352c-.064-.64.032-1.216.224-1.312a2.222,2.222,0,0,1,1.312-.352,2.483,2.483,0,0,1,2.5,2.144c0,.384-.032,2.336-.064,2.624,0,.192-.192.352-.928.576-.7.224-3.264.928-3.744,1.12a3.113,3.113,0,0,0-1.28.8,2.77,2.77,0,0,0-.608,1.632c0,1.6,1.088,2.976,2.208,2.976A5.628,5.628,0,0,0-29.02.128a12.486,12.486,0,0,0,2.88-1.472c.064-.032.192.1.192.128A2.147,2.147,0,0,0-23.9.384c1.44,0,2.88-1.376,2.88-1.984a.5.5,0,0,0-.1-.32c-.064-.1-.1-.16-.192-.1a3.576,3.576,0,0,1-1.216.48c-.256,0-1.28-.128-1.28-1.6,0-.352.128-4.384.128-5.632a4.021,4.021,0,0,0-.64-2.656,3.231,3.231,0,0,0-2.88-1.5Zm-.96,11.584a2,2,0,0,1-2.016-1.92,1.241,1.241,0,0,1,.64-1.216,9.693,9.693,0,0,1,3.3-.96.305.305,0,0,1,.256.256c0,.64,0,1.728-.064,2.5a1.808,1.808,0,0,1-.384.8,4.118,4.118,0,0,1-1.732.54Zm8.64-9.92c0,.128.32.256,1.088.864a1.026,1.026,0,0,1,.352.96v6.112c-.032,1.92-.128,2.24-1.376,2.656-.256.1-.64.224-.64.416,0,.256.32.384.672.384.768,0,1.152-.128,2.112-.128,1.856,0,2.976.16,3.776.16.48,0,.768-.128.768-.288,0-.128-.064-.352-.576-.512-.48-.128-1.056-.288-1.472-.384-.576-.1-.768-.7-.832-1.632-.032-.48-.192-6.272-.192-6.912a1.21,1.21,0,0,1,.32-.7,1.875,1.875,0,0,1,1.408-.448,3.03,3.03,0,0,1,1.76.7.814.814,0,0,0,.448.1,8.06,8.06,0,0,0,1.312-1.472,1.522,1.522,0,0,0,.192-.448c0-.288-.288-1.088-1.6-1.088a6.314,6.314,0,0,0-3.648,1.984c-.064.032-.224,0-.224-.128,0-.608.064-1.184.064-1.76,0-.1-.16-.384-.288-.384-.1,0-.256.128-.64.384a14.6,14.6,0,0,1-2.364,1.02.615.615,0,0,0-.42.544Zm15.168-1.664a4.777,4.777,0,0,0-2.56.672,3.324,3.324,0,0,0-1.76,2.88A3.958,3.958,0,0,0-6.688-6.144c.992.64,1.184.8,1.952,1.344A2.463,2.463,0,0,1-3.3-2.656,2.391,2.391,0,0,1-4.032-.9a2.425,2.425,0,0,1-1.28.48c-1.152,0-2.016-.64-2.912-2.272-.192-.352-.416-.736-.672-.736-.192,0-.256.32-.256.672A8.066,8.066,0,0,0-8.672-.32a6.451,6.451,0,0,0,3.1.7A5.447,5.447,0,0,0-2.88-.352,4.062,4.062,0,0,0-1.024-3.488c0-1.44-.7-2.528-2.5-3.584-2.144-1.184-3.168-2.016-3.168-3.1a2.048,2.048,0,0,1,1.92-1.984c1.056,0,1.856.64,2.56,2.144.16.352.352.544.48.544.256,0,.384-.288.384-.576,0-.224-.1-1.312-.1-1.888A.668.668,0,0,0-1.7-12.38a5.945,5.945,0,0,0-1.024-.352,7.122,7.122,0,0,0-1.624-.2Z" transform="translate(1118 -2382)"/>
        <circle data-name="circle" cx="5" cy="5" r="5" transform="translate(1127.499 -2395)"/>
        <path data-name="path" d="M.346,47.361l-.692-.722,49-47,.692.722Z" transform="translate(1131.5 -2437)" fill="#5cc1cf"/>
      </g>
    </g>
  </g>
</svg>
